# Blender 3.3.0
# www.blender.org
mtllib capital_letter_v.mtl
o obj_0
v -1.741500 -9.457001 20.000000
v 1.705500 -9.457001 20.000000
v -0.743500 -5.451000 -0.000000
v -0.041500 -5.011000 -0.000000
v 0.673500 -5.441000 -0.000000
v -0.412500 -4.157001 20.000000
v -0.224500 -3.463001 20.000000
v -3.895500 9.456999 20.000000
v 1.705500 -9.457000 -0.000000
v -0.588500 -4.812001 20.000000
v -7.826500 9.307999 20.000000
v -1.741500 -9.457000 -0.000000
v 0.522500 -4.822000 -0.000000
v -0.743500 -5.451001 20.000000
v 0.487600 -4.679400 -0.000000
v -0.025600 -2.742001 20.000000
v 3.861500 9.457000 0.000000
v 7.826500 9.307000 0.000000
v -0.239500 -2.060001 20.000000
v -7.826500 9.308000 0.000000
v -3.895500 9.457000 0.000000
v 0.363500 -4.172000 -0.000000
v 0.673500 -5.441001 20.000000
v -0.041500 -5.011001 20.000000
v -0.020600 -2.758100 -0.000000
v -0.025600 -2.742000 -0.000000
v 0.522500 -4.822001 20.000000
v 0.221500 -1.975000 -0.000000
v 0.487600 -4.679401 20.000000
v 0.186500 -3.480000 -0.000000
v -0.012500 -2.732000 -0.000000
v -0.239500 -2.060000 -0.000000
v -0.016500 -2.771000 -0.000000
v -0.020300 -2.758900 -0.000000
v -0.015400 -2.742000 -0.000000
v -0.020100 -2.758300 -0.000000
v 0.221500 -1.975001 20.000000
v 0.363500 -4.172001 20.000000
v -0.224500 -3.463000 -0.000000
v 0.186500 -3.480001 20.000000
v -0.412500 -4.157000 -0.000000
v -0.020100 -2.758301 20.000000
v -0.016500 -2.771001 20.000000
v -0.012500 -2.732001 20.000000
v -0.588500 -4.812000 -0.000000
v -0.015400 -2.742001 20.000000
v -0.020300 -2.758901 20.000000
v 3.861500 9.456999 20.000000
v 7.826500 9.306999 20.000000
v -0.020600 -2.758101 20.000000
vn -0.0000 -1.0000 -0.0000
vn -0.0000 -0.0000 1.0000
vn -0.0000 -0.0000 -1.0000
vn 0.0007 -0.0000 1.0000
vn -0.9529 0.3034 -0.0000
vn -0.0379 0.9993 -0.0000
vn -0.0000 1.0000 -0.0000
vn -0.9604 0.2785 -0.0000
vn 0.0378 0.9993 -0.0000
vn 0.9507 -0.3101 -0.0000
vn 0.9542 0.2993 -0.0000
vn -0.9554 0.2953 -0.0000
vn -0.9512 -0.3085 -0.0000
vn 0.9531 0.3026 -0.0000
vt 0.933091 0.776436
vt 0.185723 0.755356
vt 0.696897 0.388218
vt 1.000000 0.776436
vt 0.118814 0.755356
vt 0.000000 0.388218
vt 0.441326 0.677595
vt 0.454953 0.669055
vt 0.468831 0.677402
vt 0.159926 0.652478
vt 0.156277 0.639007
vt 0.227534 0.388218
vt 0.898720 0.388218
vt 1.000000 0.388218
vt 0.488863 0.755356
vt 0.000000 0.000000
vt 0.163342 0.665192
vt 0.975024 0.388218
vt 0.303839 0.391110
vt 0.383115 0.388218
vt 0.933091 0.388218
vt 0.421954 0.755356
vt 0.696897 0.000000
vt 0.465900 0.665386
vt 0.166351 0.677595
vt 0.465223 0.662618
vt 0.152416 0.625011
vt 0.975222 0.388218
vt 0.696897 0.388218
vt 0.530713 0.388218
vt 0.607677 0.388218
vt 0.933091 0.388218
vt 0.607677 0.391129
vt 0.856127 0.388218
vt 0.383116 0.000000
vt 0.156568 0.611773
vt 0.708195 0.388218
vt 0.975024 0.000000
vt 0.303839 0.391110
vt 0.383115 0.000000
vt 0.380143 0.388218
vt 0.898720 0.000000
vt 0.462814 0.652769
vt 0.138846 0.677402
vt 0.152725 0.669055
vt 0.455358 0.625324
vt 0.455261 0.625011
vt 0.975222 0.000000
vt 0.696897 0.000000
vt 0.141777 0.665386
vt 0.460058 0.610124
vt 0.840545 0.388218
vt 0.142455 0.662618
vt 0.459378 0.639337
vt 0.455515 0.624817
vt 0.855925 0.388218
vt 0.451109 0.611773
vt 0.708195 0.000000
vt 0.455438 0.625574
vt 0.455364 0.625340
vt 0.455459 0.625011
vt 0.975024 0.000000
vt 0.856127 0.388218
vt 0.455368 0.625328
vt 0.147620 0.610124
vt 0.840545 0.776436
vt 0.144864 0.652769
vt 0.451400 0.639007
vt 0.148299 0.639337
vt 0.447751 0.652478
vt 0.152309 0.625328
vt 0.152240 0.625574
vt 0.152162 0.624817
vt 0.855925 0.776436
vt 0.444335 0.665192
vt 0.152218 0.625011
vt 0.856127 0.776436
vt 0.975024 0.388218
vt 0.152313 0.625340
vt 0.076964 0.388218
vt 0.933091 0.776436
vt 0.607677 0.776436
vt 0.000000 0.391129
vt 0.856127 0.776436
vt 0.383116 0.388218
vt 0.152319 0.625324
s 0
usemtl color_14789940
f 12/21/1 2/4/1 1/1/1
f 7/11/2 11/19/2 6/10/2
f 4/8/3 5/9/3 3/7/3
f 5/9/3 9/15/3 3/7/3
f 6/10/2 11/19/2 10/17/2
f 13/24/3 18/33/3 5/9/3
f 2/4/1 12/21/1 9/14/1
f 5/9/3 4/8/3 13/24/3
f 15/26/3 13/24/3 4/8/3
f 10/17/2 11/19/2 14/25/2
f 24/45/2 14/25/2 23/44/2
f 2/5/2 23/44/2 14/25/2
f 14/25/2 1/2/2 2/5/2
f 27/50/2 23/44/2 49/83/2
f 2/5/2 49/83/2 23/44/2
f 15/26/3 18/33/3 13/24/3
f 22/43/3 18/33/3 15/26/3
f 9/15/3 5/9/3 18/33/3
f 22/43/3 30/54/3 18/33/3
f 18/33/3 30/54/3 28/51/3
f 18/33/3 28/51/3 17/30/3
f 21/41/3 32/57/3 20/39/3
f 26/47/3 39/68/3 32/57/3
f 25/46/3 39/68/3 26/47/3
f 29/53/2 24/45/2 27/50/2
f 23/44/2 27/50/2 24/45/2
f 26/47/3 35/61/3 25/46/3
f 35/61/3 36/64/3 25/46/3
f 34/60/3 25/46/3 36/64/3
f 33/59/3 35/61/3 30/54/3
f 36/64/3 35/61/3 33/59/3
f 35/61/3 31/55/3 30/54/3
f 28/51/3 30/54/3 31/55/3
f 34/60/3 39/68/3 25/46/3
f 20/39/3 32/57/3 39/68/3
f 49/83/2 48/80/2 37/65/2
f 37/65/2 44/73/2 49/83/2
f 27/50/2 49/83/2 29/53/2
f 38/67/2 29/53/2 49/83/2
f 36/64/3 33/59/3 34/60/3
f 38/67/2 49/83/2 40/69/2
f 44/73/4 46/76/4 49/83/4
f 39/68/3 41/70/3 20/39/3
f 41/70/3 45/75/3 20/39/3
f 45/75/3 3/7/3 20/39/3
f 40/69/2 49/83/2 43/72/2
f 43/72/2 49/83/2 46/76/2
f 42/71/2 43/72/2 46/76/2
f 17/31/5 28/52/5 48/82/5
f 22/43/3 15/26/3 41/70/3
f 30/54/3 22/43/3 41/70/3
f 4/8/3 41/70/3 15/26/3
f 41/70/3 39/68/3 30/54/3
f 3/7/3 45/75/3 4/8/3
f 45/75/3 41/70/3 4/8/3
f 33/59/3 30/54/3 39/68/3
f 34/60/3 33/59/3 39/68/3
f 47/79/2 43/72/2 42/71/2
f 21/42/6 20/38/6 11/18/6
f 21/42/6 11/18/6 8/13/6
f 12/22/3 20/39/3 3/7/3
f 3/7/3 9/15/3 12/22/3
f 46/76/2 16/27/2 50/86/2
f 1/2/2 14/25/2 11/19/2
f 16/27/2 19/36/2 7/11/2
f 11/19/2 7/11/2 19/36/2
f 11/19/2 19/36/2 8/12/2
f 50/86/2 47/79/2 42/71/2
f 50/86/2 42/71/2 46/76/2
f 35/62/7 26/48/7 46/78/7
f 47/79/2 50/86/2 7/11/2
f 50/86/2 16/27/2 7/11/2
f 43/72/2 7/11/2 40/69/2
f 7/11/2 6/10/2 40/69/2
f 47/79/2 7/11/2 43/72/2
f 38/67/2 40/69/2 6/10/2
f 29/53/2 38/67/2 6/10/2
f 10/17/2 24/45/2 6/10/2
f 14/25/2 24/45/2 10/17/2
f 29/53/2 6/10/2 24/45/2
f 44/74/8 31/56/8 46/77/8
f 35/63/8 46/77/8 31/56/8
f 17/32/9 48/81/9 18/34/9
f 49/84/9 18/34/9 48/81/9
f 37/66/5 48/82/5 28/52/5
f 9/16/10 49/85/10 2/6/10
f 16/28/7 46/78/7 26/48/7
f 16/29/11 26/49/11 19/37/11
f 44/74/12 37/66/12 28/52/12
f 31/56/12 44/74/12 28/52/12
f 9/16/10 18/35/10 49/85/10
f 12/23/13 1/3/13 20/40/13
f 1/3/13 11/20/13 20/40/13
f 26/49/11 32/58/11 19/37/11
f 8/13/14 19/37/14 21/42/14
f 32/58/14 21/42/14 19/37/14
