# Blender 3.3.0
# www.blender.org
mtllib cross.mtl
o obj_0
v 10.000000 -5.000001 20.000000
v 10.000000 -5.000000 -0.000000
v 10.000000 5.000000 0.000000
v 10.000000 4.999999 20.000000
v 5.000000 -10.000001 20.000000
v 5.000000 -10.000000 -0.000000
v -5.000000 -10.000001 20.000000
v -5.000000 -10.000000 -0.000000
v 5.000000 -5.000001 20.000000
v -5.000000 -5.000001 20.000000
v -10.000000 4.999999 20.000000
v -5.000000 -5.000000 -0.000000
v -5.000000 9.999999 20.000000
v -5.000000 10.000000 0.000000
v 5.000000 4.999999 20.000000
v -5.000000 5.000000 0.000000
v 5.000000 9.999999 20.000000
v -10.000000 5.000000 0.000000
v -5.000000 4.999999 20.000000
v -10.000000 -5.000000 -0.000000
v -10.000000 -5.000001 20.000000
v 5.000000 -5.000000 -0.000000
v 5.000000 10.000000 0.000000
v 5.000000 5.000000 0.000000
vn 1.0000 -0.0000 -0.0000
vn -0.0000 -1.0000 -0.0000
vn -0.0000 -0.0000 1.0000
vn -1.0000 -0.0000 -0.0000
vn -0.0000 -0.0000 -1.0000
vn -0.0000 1.0000 -0.0000
vt 0.333333 0.333333
vt 0.250000 0.333333
vt 1.000000 0.333333
vt 0.333333 0.000000
vt 0.250000 0.333333
vt 1.000000 0.000000
vt 0.500000 0.000000
vt 0.750000 0.000000
vt 0.083333 0.333333
vt 0.500000 0.333333
vt 0.083333 0.333333
vt 0.750000 0.333333
vt 0.666667 0.333333
vt 0.333333 0.250000
vt 0.750000 0.666667
vt 0.666667 0.000000
vt 0.333333 0.416666
vt 0.750000 0.333333
vt 0.500000 0.333333
vt 0.333333 0.083333
vt 0.750000 0.666667
vt 0.500000 0.000000
vt 0.333333 0.583333
vt 0.750000 0.333333
vt 0.250000 0.250000
vt 0.833333 0.666667
vt 0.916667 0.333333
vt 0.250000 0.083333
vt 0.666667 0.666667
vt 0.916666 0.666667
vt 0.083333 0.000000
vt 0.333333 0.666667
vt 0.083333 1.000000
vt 0.666667 0.333333
vt 0.250000 0.583333
vt 0.916666 0.333333
vt 0.000000 0.083333
vt 0.666667 0.333333
vt 0.666667 0.666667
vt 0.666667 0.000000
vt 0.000000 0.583333
vt 0.666667 0.333333
vt 0.083333 0.250000
vt 0.833333 0.333333
vt 0.750000 0.000000
vt 0.083333 0.583333
vt 0.000000 0.666667
vt 0.000000 0.250000
vt 0.916667 0.333333
vt 0.500000 0.666667
vt 0.333333 0.333333
vt 0.083333 0.666667
vt 0.750000 0.333333
vt 0.083333 0.083333
vt 0.000000 1.000000
vt 0.250000 0.666666
vt 0.833333 0.333333
vt 0.500000 0.333333
vt 0.250000 0.000000
vt 0.833333 0.666667
vt 0.500000 0.666667
vt 0.833333 0.333333
vt 0.250000 0.416666
vt 0.916667 0.000000
vt 0.000000 0.416666
vt 0.916667 0.000000
vt 0.500000 0.333333
vt 0.833333 0.000000
vt 0.083333 0.416666
s 0
usemtl color_15708628
f 1/1/1 2/4/1 3/7/1
f 1/1/1 3/7/1 4/10/1
f 6/16/2 5/13/2 7/19/2
f 6/16/2 7/19/2 8/22/2
f 5/14/3 9/25/3 10/28/3
f 5/14/3 10/28/3 7/20/3
f 15/43/3 17/48/3 13/37/3
f 15/43/3 13/37/3 19/54/3
f 13/38/4 14/40/4 16/45/4
f 13/38/4 16/45/4 19/53/4
f 22/63/5 6/17/5 8/23/5
f 22/63/5 8/23/5 12/35/5
f 21/59/3 10/28/3 19/54/3
f 11/31/3 21/59/3 19/54/3
f 15/43/3 19/54/3 10/28/3
f 10/28/3 9/25/3 15/43/3
f 4/11/3 15/43/3 9/25/3
f 4/11/3 9/25/3 1/2/3
f 23/65/5 24/69/5 16/46/5
f 23/65/5 16/46/5 14/41/5
f 10/29/4 12/34/4 8/24/4
f 10/29/4 8/24/4 7/21/4
f 4/12/6 3/8/6 24/68/6
f 4/12/6 24/68/6 15/44/6
f 5/15/1 6/18/1 22/62/1
f 5/15/1 22/62/1 9/26/1
f 15/44/1 24/68/1 23/66/1
f 15/44/1 23/66/1 17/49/1
f 18/52/5 16/46/5 12/35/5
f 20/56/5 18/52/5 12/35/5
f 22/63/5 12/35/5 16/46/5
f 16/46/5 24/69/5 22/63/5
f 2/5/5 22/63/5 24/69/5
f 2/5/5 24/69/5 3/9/5
f 21/60/2 20/57/2 12/36/2
f 21/60/2 12/36/2 10/30/2
f 11/32/4 18/51/4 20/58/4
f 11/32/4 20/58/4 21/61/4
f 19/55/6 16/47/6 18/52/6
f 19/55/6 18/52/6 11/33/6
f 9/27/2 22/64/2 2/6/2
f 9/27/2 2/6/2 1/3/2
f 17/50/6 23/67/6 14/42/6
f 17/50/6 14/42/6 13/39/6
