# Blender 3.3.0
# www.blender.org
mtllib diamond.mtl
o obj_0
v 0.000000 -10.000000 -0.000000
v -12.500000 0.000000 0.000000
v 0.000000 10.000000 0.000000
v 12.500000 0.000000 0.000000
v -12.500000 -0.000001 20.000000
v 0.000000 -10.000001 20.000000
v 12.500000 -0.000001 20.000000
v 0.000000 9.999999 20.000000
vn -0.0000 -0.0000 -1.0000
vn -0.0000 -0.0000 1.0000
vn 0.6247 -0.7809 -0.0000
vn 0.6247 0.7809 -0.0000
vn -0.6247 0.7809 -0.0000
vn -0.6247 -0.7809 -0.0000
vt 1.000000 0.336065
vt 0.000000 0.000000
vt 0.672131 0.419877
vt 0.672132 0.409836
vt 0.336065 0.419877
vt 0.672132 0.073771
vt 0.672131 0.000000
vt 0.000000 0.419877
vt 1.000000 0.000000
vt 0.336065 0.000000
vt 1.000000 0.409836
vt 0.336065 0.839754
vt 1.000000 0.745901
vt 0.000000 0.419877
vt 0.672131 0.839754
vt 0.672132 0.819672
vt 0.336065 0.419877
vt 0.672132 0.483606
vt 0.672131 0.419877
vt 0.000000 0.839754
s 0
usemtl color_14093196
f 1/1/1 2/4/1 3/6/1
f 1/1/1 3/6/1 4/9/1
f 7/16/2 8/18/2 6/13/2
f 5/11/2 6/13/2 8/18/2
f 6/14/3 1/2/3 4/10/3
f 6/14/3 4/10/3 7/17/3
f 4/10/4 3/7/4 8/19/4
f 4/10/4 8/19/4 7/17/4
f 3/8/5 2/5/5 5/12/5
f 3/8/5 5/12/5 8/20/5
f 6/15/6 5/12/6 2/5/6
f 6/15/6 2/5/6 1/3/6
