# Blender 3.3.0
# www.blender.org
mtllib hexagon.mtl
o obj_0
v -8.660000 4.999999 20.000000
v -8.660000 5.000000 0.000000
v -8.660000 -5.000000 -0.000000
v -8.660000 -5.000001 20.000000
v 0.000000 10.000000 0.000000
v 8.660000 5.000000 0.000000
v 8.660000 -5.000000 -0.000000
v 0.000000 -10.000000 -0.000000
v 8.660000 4.999999 20.000000
v 0.000000 9.999999 20.000000
v 0.000000 -10.000001 20.000000
v 8.660000 -5.000001 20.000000
vn -1.0000 -0.0000 -0.0000
vn -0.0000 -0.0000 -1.0000
vn -0.0000 -0.0000 1.0000
vn 0.5000 0.8660 -0.0000
vn -0.5000 -0.8660 -0.0000
vn -0.5000 0.8660 -0.0000
vn 0.5000 -0.8660 -0.0000
vn 1.0000 -0.0000 -0.0000
vt 0.716505 0.499989
vt 0.000000 0.125000
vt 0.500000 0.374987
vt 0.500000 0.125000
vt 0.716505 0.499989
vt 0.500000 0.375000
vt 0.933009 0.624991
vt 0.000000 0.375000
vt 0.500000 0.124991
vt 0.500000 1.000000
vt 0.500000 0.000000
vt 0.716505 0.000000
vt 0.500000 0.875000
vt 0.933009 0.125003
vt 0.500000 0.625000
vt 0.933009 0.374997
vt 0.500000 0.500000
vt 0.500000 0.874975
vt 0.000000 0.875000
vt 0.500000 0.624980
vt 0.000000 1.000000
vt 0.000000 0.000000
vt 0.933009 0.874986
vt 0.000000 0.500000
vt 0.716505 0.999977
vt 0.000000 0.625000
s 0
usemtl color_16500122
f 1/2/1 2/4/1 3/6/1
f 1/2/1 3/6/1 4/8/1
f 2/3/2 5/9/2 6/12/2
f 2/3/2 6/12/2 7/14/2
f 8/16/2 3/5/2 7/14/2
f 2/3/2 7/14/2 3/5/2
f 9/18/3 10/20/3 1/1/3
f 9/18/3 1/1/3 4/7/3
f 11/23/3 12/25/3 4/7/3
f 9/18/3 4/7/3 12/25/3
f 6/13/4 5/10/4 10/21/4
f 6/13/4 10/21/4 9/19/4
f 11/24/5 4/8/5 3/6/5
f 11/24/5 3/6/5 8/17/5
f 5/11/6 2/4/6 1/2/6
f 5/11/6 1/2/6 10/22/6
f 11/24/7 8/17/7 7/15/7
f 11/24/7 7/15/7 12/26/7
f 6/13/8 9/19/8 12/26/8
f 6/13/8 12/26/8 7/15/8
