# Blender 3.3.0
# www.blender.org
mtllib star.mtl
o obj_0
v 2.264000 10.084000 0.000000
v 3.276000 3.116000 0.000000
v -9.590000 6.232000 0.000000
v -2.651000 5.042000 0.000000
v -9.590000 -6.232000 -0.000000
v -6.314000 0.000000 0.000000
v -9.590000 6.231999 20.000000
v -2.651000 5.041999 20.000000
v 2.264000 -10.084000 -0.000000
v -2.651000 -5.042000 -0.000000
v -9.590000 -6.232001 20.000000
v -6.314000 -0.000001 20.000000
v -2.651000 -5.042001 20.000000
v 9.590000 0.000000 0.000000
v 3.276000 -3.116000 -0.000000
v 3.276000 -3.116001 20.000000
v 2.264000 -10.084001 20.000000
v 3.276000 3.115999 20.000000
v 2.264000 10.083999 20.000000
v 9.590000 -0.000001 20.000000
vn -0.0000 -0.0000 1.0000
vn 0.9896 0.1437 -0.0000
vn 0.4425 0.8967 -0.0000
vn -0.7161 0.6980 -0.0000
vn 0.1690 -0.9856 -0.0000
vn 0.1690 0.9856 -0.0000
vn -0.8852 0.4653 -0.0000
vn 0.4425 -0.8967 -0.0000
vn 0.9896 -0.1437 -0.0000
vn -0.0000 -0.0000 -1.0000
vn -0.8852 -0.4653 -0.0000
vn -0.7161 -0.6980 -0.0000
vt 0.852185 0.427874
vt 0.831247 0.000000
vt 0.155434 0.427864
vt 0.786085 0.427874
vt 0.259694 0.534846
vt 1.000000 0.427874
vt 0.000000 0.641801
vt 0.424320 0.427874
vt 0.852185 0.427874
vt 0.979081 0.000000
vt 0.133944 0.575697
vt 0.424320 0.000000
vt 0.638255 0.427874
vt 0.155425 0.855739
vt 0.133944 0.707918
vt 0.490435 0.427874
vt 0.424320 0.213938
vt 1.000000 0.852195
vt 0.424320 0.852195
vt 0.852185 0.852195
vt 0.979081 0.424320
vt 0.558264 0.280042
vt 0.406927 0.774037
vt 0.424320 0.213934
vt 0.259690 0.748784
vt 0.424320 0.147815
vt 0.579745 0.000000
vt 0.000000 0.000000
vt 0.638255 0.852195
vt 0.558264 0.147820
vt 0.490435 0.852195
vt 0.684011 0.106955
vt 0.000000 0.147815
vt 0.638255 0.427874
vt 0.424320 0.427864
vt 0.406927 0.509596
vt 0.424320 0.280034
vt 0.337407 0.641815
vt 0.761727 0.213923
vt 0.000000 0.280034
vt 0.831247 0.081701
vt 0.000000 0.213934
vt 0.786085 0.852195
vt 0.684014 0.320892
vt 0.852185 0.852195
vt 0.831247 0.424320
vt 0.579754 0.427875
vt 0.638255 0.852195
vt 0.831247 0.346143
vt 0.000000 0.427864
s 0
usemtl color_15277357.002
f 17/41/1 16/39/1 13/32/1
f 18/44/1 12/30/1 16/39/1
f 13/32/1 16/39/1 12/30/1
f 8/22/1 12/30/1 18/44/1
f 7/17/1 12/30/1 8/22/1
f 11/27/1 13/32/1 12/30/1
f 1/1/2 19/45/2 18/43/2
f 1/1/2 18/43/2 2/4/2
f 18/43/3 14/34/3 2/4/3
f 1/2/4 8/21/4 19/46/4
f 10/26/5 13/33/5 11/28/5
f 10/26/5 11/28/5 5/12/5
f 4/9/6 3/6/6 7/18/6
f 4/9/6 7/18/6 8/20/6
f 20/48/3 14/34/3 18/43/3
f 6/16/7 5/13/7 11/29/7
f 6/16/7 11/29/7 12/31/7
f 18/44/1 16/39/1 20/49/1
f 20/50/8 16/40/8 15/37/8
f 20/50/8 15/37/8 14/35/8
f 1/2/4 4/10/4 8/21/4
f 15/37/9 16/40/9 17/42/9
f 15/37/9 17/42/9 9/24/9
f 9/23/10 10/25/10 15/38/10
f 10/25/10 6/15/10 15/38/10
f 5/14/10 6/15/10 10/25/10
f 6/15/10 2/5/10 15/38/10
f 3/7/10 4/11/10 6/15/10
f 4/11/10 2/5/10 6/15/10
f 1/3/10 2/5/10 4/11/10
f 14/36/10 15/38/10 2/5/10
f 18/44/1 19/47/1 8/22/1
f 12/31/11 7/19/11 6/16/11
f 3/8/11 6/16/11 7/19/11
f 10/26/12 9/24/12 17/42/12
f 10/26/12 17/42/12 13/33/12
