# Blender 3.3.0
# www.blender.org
mtllib triangle.mtl
o obj_0
v 0.000000 -10.000000 -0.000000
v -10.000000 10.000000 0.000000
v 10.000000 10.000000 0.000000
v -10.000000 9.999999 20.000000
v 0.000000 -10.000001 20.000000
v 10.000000 9.999999 20.000000
vn -0.0000 -0.0000 -1.0000
vn -0.0000 -0.0000 1.0000
vn 0.8944 -0.4472 -0.0000
vn -0.0000 1.0000 -0.0000
vn -0.8944 -0.4472 -0.0000
vt 0.320715 0.801786
vt 0.358570 0.000000
vt 0.717140 0.400893
vt 0.000000 0.561251
vt 1.000000 0.759463
vt 0.717140 0.000000
vt 0.320715 0.400893
vt 0.358570 0.400893
vt 1.000000 0.400893
vt 0.641430 0.400893
vt 0.641430 0.759463
vt 0.358570 0.000000
vt 0.641430 0.801786
vt 0.000000 0.000000
vt 0.358570 0.400893
vt 0.320715 0.561251
vt 0.000000 0.400893
vt 0.641430 0.400893
s 0
usemtl color_8273816
f 1/1/1 2/4/1 3/7/1
f 4/10/2 5/13/2 6/16/2
f 5/14/3 1/2/3 3/8/3
f 5/14/3 3/8/3 6/17/3
f 3/9/4 2/5/4 4/11/4
f 3/9/4 4/11/4 6/18/4
f 2/6/5 1/3/5 5/15/5
f 2/6/5 5/15/5 4/12/5
